<?xml version="1.0" standalone="no"?>
<!DOCTYPE svg PUBLIC "-//W3C//DTD SVG 20010904//EN"
 "http://www.w3.org/TR/2001/REC-SVG-20010904/DTD/svg10.dtd">
<svg version="1.0" xmlns="http://www.w3.org/2000/svg"
 width="638.000000pt" height="638.000000pt" viewBox="0 0 638.000000 638.000000"
 preserveAspectRatio="xMidYMid meet">
<metadata>
Created by potrace 1.14, written by Peter Selinger 2001-2017
</metadata>
<g transform="translate(0.000000,638.000000) scale(0.100000,-0.100000)"
fill="#000000" stroke="none">
<path d="M2995 6284 c-11 -2 -59 -6 -107 -9 -49 -4 -88 -10 -88 -13 0 -8 71
-39 290 -126 432 -173 650 -176 868 -12 34 26 62 49 62 51 0 17 -293 72 -502
95 -164 18 -450 26 -523 14z"/>
<path d="M2405 6193 c-53 -13 -252 -76 -284 -89 l-36 -16 95 -24 c106 -27 229
-70 338 -120 41 -19 75 -34 78 -34 5 0 149 -64 361 -161 193 -88 368 -150 492
-173 104 -20 152 -20 245 -1 153 32 281 118 495 333 174 175 171 162 52 202
l-70 24 -78 -75 c-223 -216 -372 -274 -618 -239 -133 19 -312 83 -615 220 -63
28 -153 67 -200 85 -47 18 -105 43 -130 54 -43 20 -83 24 -125 14z"/>
<path d="M4305 5833 c-415 -431 -625 -520 -981 -414 -105 32 -264 98 -474 199
-483 232 -714 310 -875 298 -127 -10 -187 -30 -286 -97 -74 -50 -166 -140
-274 -269 -293 -350 -424 -446 -637 -466 l-67 -7 -65 -92 c-36 -51 -66 -95
-66 -98 0 -3 26 -11 57 -18 137 -28 282 12 423 117 71 53 195 174 417 409 168
176 243 232 378 282 78 28 243 24 361 -10 126 -37 407 -160 739 -325 201 -100
439 -189 477 -179 14 4 12 -2 -8 -29 -30 -38 -49 -43 -63 -15 -6 10 -22 21
-36 24 l-26 4 27 -28 c15 -16 24 -32 20 -36 -4 -4 -11 -2 -15 5 -4 7 -14 12
-22 10 -9 -2 -15 7 -17 25 -2 19 -9 27 -23 27 -11 0 -38 9 -61 21 l-41 21 5
-26 c5 -23 2 -26 -21 -26 -14 0 -37 9 -51 20 -30 24 -53 25 -70 5 -13 -16 -55
-21 -46 -6 8 12 -443 233 -607 297 -110 43 -277 84 -342 84 -79 0 -182 -26
-259 -66 -39 -19 -73 -39 -76 -43 -3 -4 -21 -17 -40 -30 -19 -13 -145 -135
-280 -271 -135 -135 -270 -265 -300 -288 -127 -95 -252 -142 -375 -142 -44 0
-147 23 -196 44 -13 6 -25 -8 -53 -58 -20 -35 -36 -69 -36 -75 0 -15 123 -75
195 -96 44 -13 83 -16 154 -13 83 4 106 10 173 41 129 59 203 120 453 372 245
246 306 299 408 355 69 37 99 47 188 60 153 22 315 -21 622 -167 111 -53 211
-95 222 -95 17 1 20 -6 23 -43 1 -24 -2 -47 -8 -50 -6 -4 -10 5 -10 19 0 32
-4 32 -36 2 -30 -27 -99 -30 -118 -5 -6 9 -27 24 -46 34 l-35 18 19 -21 c22
-26 15 -58 -12 -47 -9 4 -25 7 -35 7 -9 0 -36 17 -59 39 -23 21 -44 39 -48 39
-4 0 -10 8 -13 19 -3 14 0 17 14 14 31 -8 21 4 -12 16 -29 10 -31 9 -26 -9 5
-20 -3 -26 -17 -13 -3 4 -23 12 -42 19 l-36 12 28 -29 c16 -16 34 -27 41 -25
7 3 17 -3 23 -14 5 -10 24 -21 40 -25 30 -7 69 -49 57 -62 -4 -3 -25 6 -47 21
-29 19 -40 22 -40 12 0 -17 -37 -11 -61 11 -9 8 -20 13 -25 12 -5 -2 -26 6
-46 16 -27 13 -38 25 -38 41 0 14 -13 33 -35 49 -19 15 -33 32 -32 38 3 17
-72 29 -163 25 -74 -4 -96 -9 -170 -44 -112 -53 -210 -133 -349 -285 -267
-289 -410 -411 -556 -472 -157 -67 -329 -40 -529 82 -38 23 -70 40 -72 39 -7
-8 -44 -101 -44 -112 0 -15 183 -129 277 -173 99 -45 173 -63 268 -63 200 0
373 114 635 419 256 298 375 392 538 423 105 19 342 -9 363 -44 10 -15 -9 -23
-73 -33 -33 -5 -49 -3 -59 8 -20 20 -107 37 -134 27 -14 -5 -27 -4 -34 3 -8 8
-11 7 -11 -5 0 -8 -22 -31 -50 -49 -27 -19 -50 -39 -50 -46 0 -6 -9 -15 -20
-18 -11 -3 -20 -10 -20 -15 0 -5 -17 -17 -37 -27 -52 -24 -227 -201 -355 -358
-189 -233 -320 -347 -458 -400 -94 -36 -159 -41 -259 -21 -138 28 -252 79
-461 208 -52 32 -97 58 -101 58 -7 0 -49 -102 -49 -119 0 -14 426 -237 525
-274 375 -143 566 -67 877 347 66 89 130 172 142 184 l21 24 7 -49 c16 -121
15 -127 -73 -257 -173 -257 -265 -342 -434 -408 -83 -32 -253 -32 -370 1 -92
25 -268 98 -418 171 -143 71 -308 142 -314 136 -10 -10 -41 -141 -35 -148 4
-3 50 -22 102 -42 52 -19 136 -55 185 -79 168 -82 330 -155 430 -192 106 -40
303 -85 371 -85 121 0 240 50 337 142 68 64 203 241 188 246 -5 2 -4 21 1 42
7 26 17 42 32 46 11 4 25 12 29 18 6 7 7 6 4 -4 -2 -8 -12 -19 -23 -25 -13 -7
-19 -20 -18 -42 0 -33 14 -61 14 -29 0 15 47 42 57 32 3 -3 -2 -17 -10 -33
-25 -48 -33 -86 -32 -150 0 -34 -1 -60 -4 -57 -2 2 -23 -24 -46 -59 -60 -89
-157 -183 -225 -217 -186 -94 -434 -50 -900 157 -310 139 -472 203 -510 203
-14 0 -20 -16 -29 -75 -13 -76 -10 -95 13 -95 30 0 276 -85 437 -151 466 -191
569 -227 744 -259 124 -23 172 -25 247 -9 82 17 147 55 216 123 53 54 62 60
62 40 0 -12 12 -50 27 -84 l26 -61 -48 -49 c-175 -178 -413 -160 -1020 78
-341 133 -572 213 -706 245 l-26 7 -6 -81 c-4 -45 -5 -85 -2 -89 2 -3 30 -12
62 -19 83 -19 409 -128 613 -206 253 -97 445 -160 610 -202 127 -32 161 -37
270 -37 117 -1 129 1 180 26 31 15 74 43 97 63 44 38 58 44 50 20 -7 -17 11
-31 24 -18 5 5 11 32 13 60 5 59 20 93 41 93 19 0 19 8 0 26 -8 9 -15 31 -15
50 0 21 -4 33 -10 29 -6 -4 -10 14 -10 48 0 55 14 81 41 75 15 -3 26 66 34
202 8 146 1 132 73 135 34 1 68 7 74 13 9 9 8 12 -6 12 -29 0 -12 24 24 34 27
8 35 6 46 -8 15 -21 43 -15 89 19 50 37 89 45 151 34 60 -11 80 -5 51 15 -24
18 -22 23 14 31 22 5 36 3 47 -9 14 -14 13 -16 -14 -27 l-29 -12 28 -8 c16 -4
39 -4 50 0 12 5 28 6 35 3 8 -2 24 0 35 6 12 5 33 14 47 20 14 6 64 29 111 51
47 23 90 41 95 41 5 0 18 15 29 32 10 18 31 43 47 56 16 14 28 34 28 47 0 13
6 30 13 37 8 7 12 19 9 26 -2 6 1 12 8 12 8 0 8 6 -1 21 -10 20 -9 21 9 17 15
-4 19 -2 15 8 -3 8 0 14 6 14 6 0 11 9 11 20 0 11 4 20 8 20 7 0 35 58 34 70
0 3 20 5 44 5 28 0 44 -4 44 -12 0 -7 5 -13 10 -13 6 0 15 -10 20 -22 24 -56
68 -123 78 -120 11 2 17 -36 14 -80 -1 -10 5 -18 12 -18 8 0 17 -9 21 -19 3
-11 19 -22 35 -26 26 -6 46 -28 42 -47 -1 -5 2 -8 8 -8 5 0 10 -20 10 -45 0
-29 4 -45 13 -46 6 0 29 -1 49 -3 35 -3 37 -2 47 41 8 31 16 43 29 43 10 0 28
9 39 20 18 16 22 17 27 4 3 -9 6 -24 6 -35 0 -15 7 -19 34 -19 28 0 40 -8 70
-44 20 -24 36 -52 36 -62 0 -13 3 -15 11 -7 15 15 39 5 39 -16 0 -13 2 -13 9
-2 6 9 11 10 15 2 4 -6 4 -16 0 -23 -5 -7 -2 -9 9 -5 18 7 77 -19 77 -34 0 -5
6 -9 14 -9 15 0 93 -123 104 -164 4 -14 6 -46 4 -71 -3 -35 -9 -46 -25 -51
-22 -7 -22 -7 -2 -15 11 -4 48 -8 83 -8 l62 -1 0 -99 c0 -55 -4 -102 -9 -106
-5 -3 -34 -6 -63 -8 l-53 -2 -3 103 c-3 102 -21 145 -23 55 -2 -74 -1 -147 2
-158 4 -14 -19 -112 -32 -137 -6 -12 -12 -37 -13 -57 -1 -20 -7 -45 -13 -56
-6 -11 -10 -44 -8 -72 1 -29 -2 -53 -7 -53 -5 0 -7 -4 -4 -9 4 -5 9 -36 12
-68 4 -32 8 -60 10 -61 10 -12 69 39 85 73 l18 40 -5 -35 -4 -35 14 30 c9 17
15 48 16 70 0 22 9 55 20 73 11 18 18 37 16 41 -6 9 29 41 44 41 6 0 10 5 10
12 0 6 2 9 5 6 8 -8 -6 -38 -16 -33 -12 8 -29 -29 -29 -63 0 -38 13 -42 156
-49 178 -9 287 18 353 89 54 58 79 127 122 340 58 289 93 358 208 411 97 45
222 49 395 13 70 -15 164 -40 209 -55 167 -59 424 -150 505 -180 l82 -30 0 52
c0 28 -3 69 -6 90 l-7 37 -131 41 c-72 22 -203 64 -291 94 -380 127 -550 158
-712 129 -46 -8 -94 -20 -106 -27 -63 -35 -101 -74 -128 -132 -27 -56 -38
-107 -84 -367 -14 -79 -52 -177 -83 -212 -57 -63 -166 -96 -324 -96 l-96 0 -6
38 c-3 20 -2 53 2 72 l8 35 94 2 c207 6 306 67 353 220 13 43 32 121 42 173
55 306 92 374 230 426 40 15 76 19 185 19 159 -1 259 -23 585 -128 230 -74
430 -137 439 -137 4 0 4 10 2 23 -3 12 -12 57 -21 99 l-16 77 -307 100 c-362
118 -461 144 -603 162 -211 25 -361 -29 -432 -156 -31 -55 -56 -131 -102 -310
-67 -266 -129 -346 -290 -381 -106 -23 -105 -24 -102 48 l3 62 59 18 c164 48
218 118 320 417 82 241 104 289 163 349 85 87 182 117 340 107 135 -8 239 -35
596 -150 164 -53 300 -94 303 -91 7 7 -56 194 -72 209 -17 17 -469 169 -600
201 -123 31 -272 43 -342 28 -154 -34 -242 -113 -337 -306 -36 -72 -74 -156
-86 -186 -39 -98 -119 -244 -160 -290 -36 -40 -40 -42 -37 -20 2 14 15 49 29
78 15 29 26 66 26 82 -1 16 6 40 15 54 10 14 17 31 17 38 0 7 8 29 18 48 11
19 43 80 72 135 87 165 122 227 162 287 124 185 258 251 478 234 131 -10 259
-46 573 -160 53 -20 97 -33 97 -30 0 20 -127 247 -143 256 -41 21 -246 90
-342 115 -117 29 -268 34 -353 10 -137 -39 -251 -151 -412 -406 -190 -298
-182 -288 -201 -268 -10 9 -14 31 -13 63 2 45 12 61 150 253 165 231 179 248
273 345 80 83 133 120 214 153 117 46 266 40 448 -17 51 -16 95 -27 97 -25 6
6 -74 116 -145 200 l-59 70 -98 3 c-79 2 -111 -1 -162 -18 -143 -48 -290 -175
-493 -425 -57 -70 -140 -173 -186 -229 -79 -97 -82 -103 -87 -160 -3 -34 -10
-62 -17 -64 -7 -2 -16 -15 -21 -28 -7 -17 -17 -24 -35 -24 -14 0 -25 4 -25 10
0 16 23 60 32 60 4 0 8 7 8 15 0 24 18 17 22 -7 2 -13 4 20 5 72 1 52 -2 102
-7 109 -10 17 29 67 191 246 25 27 59 66 76 85 170 197 292 320 392 394 66 48
180 106 209 106 46 1 42 17 -22 78 -48 46 -69 60 -83 55 -87 -31 -305 -231
-643 -591 -184 -195 -178 -187 -150 -217 12 -13 19 -28 16 -33 -9 -15 -46 -2
-46 15 0 10 -7 14 -19 10 -22 -5 -34 23 -25 58 3 11 -2 29 -10 40 -10 13 -15
15 -16 6 0 -11 -3 -11 -15 -1 -18 15 -20 31 -2 24 8 -3 103 86 228 212 416
420 472 475 552 532 l49 35 -29 23 c-15 13 -45 36 -66 50 l-38 27 -41 -39
c-101 -95 -763 -740 -766 -746 -4 -8 59 -43 70 -40 4 1 5 -5 2 -13 -7 -18 -16
-19 -32 -3 -9 9 -12 9 -12 1 0 -19 -52 -8 -63 13 -6 10 -17 24 -26 30 -12 10
-13 15 -3 27 11 13 7 17 -34 29 l-47 13 49 39 c76 61 130 112 397 371 137 132
284 274 328 314 l79 75 -66 43 c-37 24 -74 43 -82 43 -8 0 -82 -67 -166 -149
-364 -359 -437 -428 -543 -511 l-77 -61 -11 28 c-7 15 -15 45 -19 66 -5 25
-12 37 -24 37 -9 0 12 20 48 44 36 24 94 69 130 101 56 49 375 362 494 484
l39 39 -81 41 c-45 23 -85 41 -89 41 -5 0 -84 -80 -178 -177z m-577 -578 c7
-7 -38 -45 -53 -45 -7 0 -18 -7 -25 -15 -9 -11 -16 -12 -30 -3 -14 9 -22 9
-34 -1 -21 -17 -21 -51 0 -51 8 0 13 4 10 8 -5 8 80 -1 88 -9 3 -2 -1 -23 -7
-47 -8 -29 -17 -42 -28 -42 -10 0 -20 -6 -22 -12 -4 -9 -8 -10 -14 -2 -4 6
-18 16 -31 23 -18 9 -22 19 -19 39 2 15 2 22 0 16 -6 -17 -51 -14 -57 3 -3 8
-10 11 -16 8 -6 -3 -10 4 -10 16 0 36 90 117 137 122 42 5 103 1 111 -8z m77
-16 c10 -16 -3 -23 -18 -11 -8 7 -17 9 -20 5 -4 -3 -7 -1 -7 5 0 15 37 16 45
1z m55 -8 c0 -14 -18 -23 -31 -15 -8 4 -7 9 2 15 18 11 29 11 29 0z m-53 -72
c-10 -16 -13 -16 -20 -3 -5 8 -6 22 -3 31 5 12 9 13 21 3 11 -9 12 -16 2 -31z
m132 -29 c1 23 39 22 46 -1 12 -37 10 -148 -3 -161 -9 -9 -12 -9 -13 3 -6 75
-10 84 -33 76 -9 -4 -12 -14 -9 -26 3 -12 9 -19 13 -16 14 9 20 -24 9 -53 -10
-25 -11 -26 -21 -8 -6 10 -12 40 -14 66 -2 27 -4 52 -6 56 -1 5 2 27 6 49 7
34 10 37 16 20 6 -14 9 -15 9 -5z m-103 -9 c-3 -4 -7 -20 -10 -35 -8 -42 -14
-42 -22 -1 -5 26 -3 40 7 45 14 10 32 3 25 -9z m-866 -15 c0 -5 6 -3 14 3 9 7
17 8 20 2 7 -11 25 -9 45 3 8 5 16 4 22 -5 11 -19 -8 -28 -56 -26 -34 1 -39
-1 -37 -17 2 -12 -1 -16 -9 -10 -7 4 -18 -1 -26 -11 -19 -27 -38 -5 -28 32 5
15 8 30 7 33 0 3 11 5 24 5 13 0 24 -4 24 -9z m295 4 c3 -5 1 -10 -4 -10 -6 0
-11 5 -11 10 0 6 2 10 4 10 3 0 8 -4 11 -10z m452 -42 c-3 -8 -6 -5 -6 6 -1
11 2 17 5 13 3 -3 4 -12 1 -19z m-623 -27 c3 -4 17 -6 31 -3 19 3 25 0 25 -13
0 -11 5 -15 15 -11 8 3 15 1 15 -4 0 -6 -9 -10 -20 -10 -13 0 -20 -7 -20 -18
0 -27 -10 -33 -27 -17 -12 12 -20 8 -57 -30 l-44 -44 -22 24 c-13 14 -26 22
-30 20 -10 -6 -23 45 -15 53 3 4 10 1 14 -6 6 -10 12 -4 21 17 7 17 19 31 26
31 8 0 14 5 14 10 0 12 67 13 74 1z m673 -23 c-3 -8 -6 -5 -6 6 -1 11 2 17 5
13 3 -3 4 -12 1 -19z m-273 -5 c7 16 46 -29 46 -54 0 -16 -34 -49 -52 -49 -5
0 -8 9 -8 21 0 11 -7 27 -15 35 -8 9 -15 24 -15 35 0 16 3 18 19 9 14 -7 21
-6 25 3z m356 -3 c0 -5 -2 -10 -4 -10 -3 0 -8 5 -11 10 -3 6 -1 10 4 10 6 0
11 -4 11 -10z m-676 -45 c-4 -8 -8 -15 -10 -15 -2 0 -4 7 -4 15 0 8 4 15 10
15 5 0 7 -7 4 -15z m-510 -20 c3 -8 1 -15 -3 -15 -5 0 -11 7 -15 15 -3 8 -1
15 3 15 5 0 11 -7 15 -15z m496 -9 c0 -9 -30 -14 -35 -6 -4 6 3 10 14 10 12 0
21 -2 21 -4z m-920 -31 c0 -8 -4 -15 -10 -15 -5 0 -10 7 -10 15 0 8 5 15 10
15 6 0 10 -7 10 -15z m-135 -137 c17 -18 17 -20 3 -15 -10 4 -17 2 -15 -5 4
-18 -20 -20 -36 -3 -15 14 -17 14 -26 -3 -6 -11 -8 -22 -5 -25 7 -7 -27 -56
-39 -57 -5 0 -5 10 -1 22 6 21 6 22 -17 7 -13 -9 -28 -26 -34 -37 -5 -12 -15
-22 -22 -22 -15 0 -6 58 11 76 6 6 22 27 36 47 14 20 32 38 40 41 29 8 85 -6
105 -26z m65 6 c0 -18 -24 -18 -39 0 -10 11 -8 15 6 18 23 6 33 0 33 -18z
m1865 -84 c-1 -11 -12 -28 -24 -37 -23 -15 -23 -15 -11 8 12 23 30 49 35 49 1
0 1 -9 0 -20z m-2155 -19 c0 -6 -8 -16 -18 -23 -10 -7 -21 -21 -25 -30 -8 -22
-33 -23 -41 -3 -3 9 3 19 17 26 12 7 28 18 35 26 16 15 32 17 32 4z m2545 -61
c-9 -14 -25 5 -25 30 0 12 3 12 16 -2 9 -9 13 -21 9 -28z m-32 -10 c3 -11 1
-20 -4 -20 -5 0 -9 9 -9 20 0 11 2 20 4 20 2 0 6 -9 9 -20z m-2586 -42 c-3 -8
-6 -5 -6 6 -1 11 2 17 5 13 3 -3 4 -12 1 -19z m260 -31 c10 -11 -79 -86 -102
-87 -11 0 -27 5 -35 10 -13 8 -13 13 0 37 8 14 18 26 22 25 4 0 20 5 35 13 28
15 66 16 80 2z m1198 -17 c3 -5 -3 -10 -14 -10 -12 0 -21 5 -21 10 0 6 6 10
14 10 8 0 18 -4 21 -10z m-235 -46 c0 -2 -7 -4 -15 -4 -8 0 -15 4 -15 10 0 5
7 7 15 4 8 -4 15 -8 15 -10z m613 -1 c-7 -2 -19 -2 -25 0 -7 3 -2 5 12 5 14 0
19 -2 13 -5z m62 -33 c3 -5 -1 -10 -9 -10 -9 0 -16 5 -16 10 0 6 4 10 9 10 6
0 13 -4 16 -10z m-1795 -91 c0 -6 -4 -7 -10 -4 -5 3 -10 11 -10 16 0 6 5 7 10
4 6 -3 10 -11 10 -16z m-53 -66 c8 -32 16 -71 17 -88 1 -16 4 -35 8 -40 11
-17 3 -108 -11 -134 -12 -21 -15 -22 -23 -8 -6 11 -4 26 7 46 21 41 20 88 -2
95 -18 6 -43 49 -43 74 0 7 5 10 10 7 6 -4 10 17 10 56 0 74 6 72 27 -8z
m2693 18 c0 -11 2 -25 5 -33 3 -7 1 -19 -4 -27 -7 -11 -13 -10 -32 7 -19 19
-21 25 -11 47 14 29 42 33 42 6z m-2620 -195 c0 -11 -19 -15 -25 -6 -3 5 1 10
9 10 9 0 16 -2 16 -4z m2570 -21 c7 -9 8 -15 2 -15 -5 0 -12 7 -16 15 -3 8 -4
15 -2 15 2 0 9 -7 16 -15z m-133 -21 c-3 -3 -12 -4 -19 -1 -8 3 -5 6 6 6 11 1
17 -2 13 -5z m83 2 c0 -3 -4 -8 -10 -11 -5 -3 -10 -1 -10 4 0 6 5 11 10 11 6
0 10 -2 10 -4z m47 -41 c0 -9 -9 -15 -21 -15 -21 1 -21 1 -2 15 24 18 23 18
23 0z m118 -37 c-4 -13 -9 -31 -12 -41 -2 -9 -9 -15 -14 -12 -5 4 -9 1 -9 -5
0 -16 -28 -42 -34 -31 -3 4 3 19 14 31 11 12 25 35 32 51 15 34 32 39 23 7z
m-1620 -69 c-18 -16 -35 -29 -39 -29 -16 0 -3 38 22 61 23 24 29 25 39 12 9
-12 5 -20 -22 -44z m-225 -38 c0 -5 -6 -11 -13 -14 -8 -3 -14 1 -14 9 0 8 6
14 14 14 7 0 13 -4 13 -9z m-128 -35 c7 4 8 2 4 -4 -11 -18 -26 -14 -25 6 0
10 3 12 6 4 2 -6 10 -9 15 -6z m-720 -202 c-3 -16 -9 -23 -18 -20 -13 5 -19
-11 -15 -43 2 -7 -3 -10 -9 -6 -16 10 -6 73 16 94 22 21 33 11 26 -25z m-70
-56 c-2 -10 3 -34 12 -53 10 -20 16 -43 14 -53 -1 -9 5 -28 15 -42 10 -15 17
-19 17 -10 0 9 6 6 16 -8 9 -13 13 -26 9 -30 -3 -3 -10 0 -15 8 -13 20 -12 3
0 -21 17 -32 1 -21 -20 13 -19 31 -19 31 -24 7 -3 -13 -5 -31 -4 -39 0 -8 0
-24 -1 -35 -2 -20 -2 -20 -13 -1 -20 34 -35 176 -25 234 6 36 6 57 -1 64 -6 6
-8 17 -5 25 8 21 31 -35 25 -59z m2658 62 c0 -5 -11 -10 -25 -10 -14 0 -25 5
-25 10 0 6 11 10 25 10 14 0 25 -4 25 -10z m-65 -10 c3 -5 4 -10 1 -10 -2 0
-12 -3 -20 -6 -12 -5 -15 -2 -10 10 7 18 20 21 29 6z m-2538 -142 c-3 -8 -6
-5 -6 6 -1 11 2 17 5 13 3 -3 4 -12 1 -19z m40 -180 c-3 -8 -6 -5 -6 6 -1 11
2 17 5 13 3 -3 4 -12 1 -19z m-14 -61 c-3 -5 -10 -4 -15 1 -6 6 -7 16 -3 22 6
9 9 9 16 -1 4 -7 5 -17 2 -22z m44 11 c-3 -8 -6 -5 -6 6 -1 11 2 17 5 13 3 -3
4 -12 1 -19z"/>
<path d="M1848 3423 c4 -33 6 -35 13 -15 8 22 3 52 -10 52 -4 0 -5 -17 -3 -37z"/>
<path d="M1368 5707 c-135 -97 -273 -216 -393 -337 -105 -106 -108 -112 -75
-105 89 18 214 97 315 200 83 84 263 305 248 305 -5 0 -47 -28 -95 -63z"/>
<path d="M2416 5027 c3 -10 9 -15 12 -12 3 3 0 11 -7 18 -10 9 -11 8 -5 -6z"/>
<path d="M2544 5025 c21 -16 32 -13 21 4 -3 6 -14 11 -23 11 -15 -1 -15 -2 2
-15z"/>
<path d="M2750 5034 c0 -3 5 -14 10 -25 16 -28 30 -23 17 6 -11 22 -27 34 -27
19z"/>
<path d="M2597 4999 c7 -7 15 -10 18 -7 3 3 -2 9 -12 12 -14 6 -15 5 -6 -5z"/>
<path d="M3571 3764 c0 -11 3 -14 6 -6 3 7 2 16 -1 19 -3 4 -6 -2 -5 -13z"/>
<path d="M5225 3544 c-74 -18 -146 -70 -186 -132 -36 -57 -73 -171 -88 -273
-19 -121 -59 -269 -90 -334 -64 -130 -158 -175 -362 -175 -48 0 -122 7 -165
15 -43 8 -78 14 -79 12 -6 -10 -35 -170 -32 -174 12 -12 203 -45 292 -50 153
-9 252 20 329 94 63 62 94 139 157 392 74 295 98 358 164 426 67 70 133 95
254 95 151 0 329 -57 616 -195 160 -77 264 -125 272 -125 2 0 3 30 1 67 l-3
68 -195 78 c-294 119 -394 155 -515 188 -136 37 -279 46 -370 23z"/>
<path d="M3555 3363 c-12 -67 -16 -70 -102 -72 -47 -1 -81 -7 -85 -14 -4 -7
-8 -52 -8 -102 -1 -73 -3 -86 -12 -70 -7 11 -12 56 -12 101 l-1 80 -171 3
-171 2 -31 -113 c-18 -62 -47 -158 -66 -213 -31 -89 -35 -96 -35 -60 -1 22 6
114 14 204 8 90 13 166 11 168 -7 8 -25 -32 -24 -53 6 -108 -22 -458 -38 -473
-5 -5 2 164 11 264 2 22 7 91 11 153 6 107 6 114 -15 133 -11 11 -21 26 -21
33 0 19 -39 51 -49 40 -5 -5 -6 -48 -1 -99 5 -49 9 -166 9 -260 -1 -554 -1
-555 20 -555 21 0 98 73 93 88 -1 5 4 15 13 22 8 7 15 18 15 26 0 7 5 16 11
20 7 4 9 -2 7 -17 -2 -18 2 -25 18 -27 17 -2 31 18 84 123 94 186 154 230 216
161 11 -13 35 -65 53 -117 49 -142 68 -179 90 -179 11 0 26 -6 33 -13 23 -23
47 -27 56 -11 7 13 13 11 34 -16 35 -45 53 -35 62 32 9 74 23 145 26 133 1 -5
3 -55 4 -110 1 -100 1 -100 27 -103 21 -2 29 3 43 31 9 19 16 42 16 51 0 9 4
16 9 16 4 0 13 24 20 53 6 28 13 61 16 72 14 53 27 223 26 340 -2 172 -1 207
5 217 3 4 0 8 -6 8 -7 0 -10 6 -7 13 2 6 -10 30 -27 51 l-31 40 -26 -84 c-15
-47 -33 -86 -40 -88 -9 -2 -10 0 -4 5 6 4 10 33 9 63 0 30 4 70 9 89 11 39 0
51 -49 51 -29 0 -32 -4 -39 -37z m-270 -174 c-4 -5 -1 -9 4 -9 6 0 11 5 11 10
0 6 5 10 11 10 6 0 8 -7 5 -15 -3 -9 1 -41 9 -72 14 -54 20 -103 9 -76 -7 15
-34 5 -34 -13 0 -11 -5 -11 -27 1 -16 8 -36 16 -46 19 -14 4 -16 10 -9 23 6
10 15 43 21 73 9 44 16 56 31 57 11 1 18 -2 15 -8z m98 -416 c-5 -12 -8 -11
-19 8 -21 38 -17 58 6 31 10 -13 16 -30 13 -39z"/>
<path d="M5383 3360 c-110 -26 -195 -113 -248 -254 -12 -33 -46 -151 -75 -261
-66 -256 -94 -337 -140 -405 -74 -109 -152 -148 -309 -155 -101 -5 -204 11
-348 54 -71 21 -73 23 -73 54 0 18 4 37 9 43 13 13 23 186 11 179 -6 -4 -10
-15 -10 -25 0 -10 -3 -21 -8 -24 -4 -2 -9 -48 -10 -102 -2 -53 -7 -104 -12
-114 -5 -9 -5 -21 -1 -26 5 -5 5 -18 1 -29 -8 -18 -9 -18 -9 -2 -1 10 -6 15
-12 12 -13 -9 -33 -56 -30 -74 1 -7 -2 -11 -7 -8 -4 4 -8 -4 -8 -16 1 -18 -4
-22 -26 -22 -16 1 -28 -5 -28 -12 0 -6 -12 -24 -26 -38 -20 -21 -29 -23 -40
-14 -13 11 -19 2 -15 -23 2 -13 -10 -9 -47 14 -20 12 -32 16 -28 9 7 -10 3
-11 -15 -5 -40 14 -222 11 -241 -4 -12 -10 -22 -11 -36 -3 -11 6 -22 8 -25 5
-6 -6 -79 23 -87 35 -3 5 -25 15 -49 23 -53 18 -100 6 -103 -27 0 -11 -2 -24
-3 -30 -2 -5 -3 -20 -4 -32 0 -12 -8 -29 -17 -38 -9 -8 -13 -23 -10 -32 5 -12
9 -14 18 -5 9 9 16 8 28 -3 9 -8 31 -16 49 -18 34 -4 57 -28 46 -47 -11 -17
66 -11 140 11 85 25 114 25 139 0 22 -23 48 -91 34 -91 -5 0 -6 -4 -3 -10 9
-14 -33 -90 -71 -128 -19 -19 -34 -40 -34 -47 0 -23 -60 -65 -101 -71 -21 -4
-36 -11 -33 -16 4 -6 -1 -8 -13 -4 -27 9 -50 -1 -56 -25 -3 -10 -16 -23 -30
-28 -14 -5 -26 -14 -28 -18 -6 -15 -73 -51 -89 -48 -8 1 -21 -4 -28 -11 -7 -8
-8 -14 -2 -14 5 0 10 -12 10 -26 0 -23 -3 -26 -26 -21 -19 3 -24 1 -19 -10 4
-12 0 -14 -15 -10 -13 3 -20 0 -20 -9 0 -8 -5 -14 -11 -14 -5 0 -7 -5 -3 -12
4 -6 3 -8 -3 -5 -6 4 -18 -2 -28 -13 -10 -11 -14 -20 -9 -20 6 0 11 -18 12
-40 2 -24 -2 -40 -8 -40 -6 0 -9 4 -6 8 3 5 -5 8 -17 8 -19 -1 -21 4 -20 39 1
22 6 57 11 78 8 31 8 36 -3 27 -9 -8 -14 -6 -20 7 -6 16 -8 15 -19 -6 -9 -15
-16 -20 -20 -12 -4 6 -5 11 -1 11 3 0 -1 14 -10 30 -20 38 -31 38 -39 -1 -3
-17 -10 -28 -16 -24 -5 3 -10 1 -10 -6 0 -9 -3 -9 -14 1 -8 6 -12 18 -9 26 3
8 -1 14 -11 14 -9 0 -16 -5 -16 -11 0 -6 -7 -9 -15 -5 -15 5 -32 -34 -22 -51
3 -4 -1 -14 -8 -20 -11 -10 -13 -7 -8 21 3 18 1 36 -5 40 -17 10 -42 -5 -42
-26 0 -10 5 -16 10 -13 15 9 12 -4 -4 -21 -10 -9 -17 -11 -21 -3 -5 6 -12 4
-20 -8 -7 -10 -11 -21 -9 -25 3 -5 0 -8 -6 -8 -8 0 -9 -14 -4 -45 4 -30 3 -45
-5 -45 -12 0 -12 0 -16 45 -1 17 -3 34 -4 38 0 4 -18 5 -38 1 -21 -4 -35 -3
-31 1 4 4 3 18 -2 31 -6 16 -6 24 1 24 6 0 7 4 4 10 -10 15 14 50 34 50 10 0
24 6 30 13 16 20 25 74 12 81 -5 4 -8 13 -5 21 4 8 10 13 14 10 5 -3 19 -1 32
5 20 8 20 10 3 9 -11 -1 -27 -1 -35 0 -13 1 -13 2 0 11 13 8 12 11 -5 24 -16
13 -17 17 -6 25 11 7 9 11 -8 21 -16 8 -20 17 -16 31 4 11 2 25 -3 32 -24 31
-21 74 8 121 17 26 30 51 30 57 0 5 11 21 25 34 l26 23 -21 15 c-17 11 -20 23
-18 53 3 35 1 39 -22 41 -29 3 -74 -33 -85 -68 -5 -13 -7 -26 -6 -28 2 -2 -11
-13 -28 -23 -26 -17 -31 -26 -31 -58 0 -45 -14 -87 -38 -113 -10 -12 -15 -31
-13 -54 1 -20 -2 -39 -9 -43 -18 -11 9 -48 32 -44 30 4 27 -22 -5 -36 -28 -12
-32 -12 -45 8 -7 11 -20 18 -28 15 -24 -9 -16 -21 23 -34 21 -6 43 -15 49 -20
6 -5 14 -6 17 -2 4 3 7 1 7 -6 0 -8 -8 -11 -20 -8 -11 3 -20 2 -20 -3 0 -4 -9
-10 -20 -13 -14 -4 -20 0 -20 11 0 14 -2 14 -9 3 -7 -11 -11 -10 -19 5 -10 18
-11 17 -9 -3 1 -12 7 -25 14 -27 9 -4 12 -16 8 -36 -3 -17 -1 -30 5 -30 5 0 9
-3 9 -7 -5 -29 3 -84 14 -95 14 -15 21 -48 10 -48 -11 0 -54 53 -53 64 1 5
-12 15 -29 22 -17 7 -31 19 -31 27 0 8 -8 21 -19 28 -10 8 -21 26 -25 41 -5
23 -3 25 17 21 l22 -6 -20 20 c-11 12 -24 17 -29 13 -10 -10 -25 4 -51 48 -18
30 -35 42 -35 24 0 -10 31 -54 50 -70 13 -12 13 -13 -5 -9 -11 3 -27 7 -35 11
-14 6 -40 -13 -186 -131 -123 -100 -158 -126 -237 -178 -315 -205 -529 -204
-838 2 -41 27 -121 81 -179 120 -113 75 -250 149 -250 134 0 -17 155 -217 215
-276 73 -74 209 -180 298 -235 191 -115 377 -113 612 8 60 31 316 198 364 238
38 32 239 179 267 196 29 17 32 17 38 2 3 -9 3 -21 -1 -27 -4 -7 0 -8 13 -3
10 4 15 4 11 0 -4 -4 0 -17 8 -30 14 -21 12 -24 -48 -68 -73 -54 -210 -150
-400 -282 -234 -163 -426 -249 -579 -261 -45 -3 -75 -10 -72 -15 4 -6 53 -41
111 -79 l104 -68 42 16 c58 22 173 77 227 108 45 27 435 288 651 436 l115 79
35 -14 c19 -8 44 -26 57 -40 l22 -26 -47 -33 c-25 -17 -78 -55 -117 -82 -39
-28 -116 -79 -171 -115 -55 -35 -176 -116 -268 -178 -149 -100 -311 -202 -323
-202 -2 0 -18 -9 -35 -19 l-32 -20 106 -52 106 -53 385 260 c212 142 436 294
498 336 112 76 114 77 175 76 43 -1 64 -5 67 -15 4 -8 14 -11 28 -8 13 3 35 2
51 -2 26 -8 25 -9 -38 -42 -63 -33 -210 -132 -592 -397 -103 -72 -234 -162
-290 -200 -57 -38 -103 -72 -103 -76 0 -7 210 -78 232 -78 7 0 38 16 68 36 55
37 361 263 370 274 3 4 28 21 55 40 28 19 52 37 55 40 9 13 234 156 304 193
92 50 193 91 291 118 66 18 95 20 165 15 173 -12 320 -76 663 -285 224 -137
319 -191 335 -191 19 0 182 91 185 103 1 4 -32 19 -73 33 -93 32 -166 71 -350
192 -217 143 -364 230 -475 283 -96 46 -199 79 -244 79 -12 0 -21 3 -21 6 0 3
27 33 61 66 69 68 65 68 180 14 113 -54 252 -139 489 -302 75 -51 179 -115
232 -142 195 -100 367 -112 483 -32 148 102 243 271 395 700 190 539 230 637
305 750 110 166 220 229 343 197 29 -8 54 -11 57 -8 5 10 35 140 35 155 0 7
-27 26 -61 41 -123 55 -224 29 -332 -84 -96 -101 -174 -256 -277 -551 -207
-596 -251 -700 -353 -848 -154 -224 -346 -265 -611 -131 -80 41 -95 50 -386
245 -91 61 -202 132 -247 159 -46 26 -83 53 -83 60 0 6 9 21 20 33 11 12 20
26 20 32 0 29 31 11 329 -186 316 -209 445 -266 596 -267 100 0 165 27 247
102 132 120 197 255 388 801 138 394 172 474 256 601 132 199 279 239 459 124
57 -37 66 -34 65 23 -1 21 -15 37 -63 74 -100 75 -160 102 -239 106 -58 4 -76
0 -122 -22 -143 -70 -247 -250 -391 -676 -158 -470 -241 -662 -334 -776 -102
-126 -221 -176 -366 -155 -139 20 -245 70 -540 255 -93 58 -176 109 -184 114
-12 7 -12 14 -1 45 8 20 19 38 26 41 6 2 40 -13 75 -34 371 -223 488 -272 654
-274 84 -1 97 2 157 32 114 56 216 188 298 387 18 44 77 208 130 365 54 157
113 326 133 375 124 321 286 459 468 400 75 -24 147 -66 232 -136 65 -53 72
-57 75 -38 4 23 -6 34 -118 124 -140 112 -249 160 -365 160 -88 0 -130 -20
-206 -97 -83 -84 -151 -226 -239 -497 -138 -429 -212 -613 -283 -706 -50 -66
-109 -116 -167 -144 -49 -23 -67 -26 -160 -25 -80 0 -123 5 -180 23 -121 37
-440 197 -440 222 0 4 5 11 10 14 6 3 10 14 10 23 1 43 16 47 67 20 308 -167
566 -202 718 -97 133 91 200 225 345 691 130 417 210 560 350 621 54 23 73 25
149 17 124 -13 260 -91 489 -275 l32 -26 0 29 c0 27 -11 39 -88 95 -266 195
-445 275 -592 265 -180 -13 -282 -146 -395 -518 -31 -102 -72 -237 -91 -300
-110 -361 -250 -484 -522 -459 -143 13 -430 114 -417 146 3 8 5 34 5 58 l0 44
88 -30 c130 -44 198 -60 292 -69 248 -23 378 67 476 327 13 34 51 161 84 281
83 303 131 414 211 492 165 160 405 108 854 -186 l100 -65 5 38 c3 21 4 43 3
48 -4 11 -277 160 -410 224 -208 101 -390 140 -510 111z m-1863 -1390 c0 -5
-5 -10 -11 -10 -5 0 -7 5 -4 10 3 6 8 10 11 10 2 0 4 -4 4 -10z m-800 -461 c0
-11 4 -18 9 -14 5 3 13 0 16 -6 8 -12 -32 -59 -51 -59 -15 0 -28 34 -15 38 6
2 11 12 11 23 0 10 5 19 11 19 5 0 7 5 4 10 -3 6 -1 10 4 10 6 0 11 -9 11 -21z
m-357 -69 c7 -28 -7 -25 -27 5 -21 32 -20 38 3 26 10 -6 21 -20 24 -31z m187
-21 c0 -5 -4 -9 -8 -9 -5 0 -9 7 -9 15 0 8 4 12 9 9 4 -3 8 -9 8 -15z m62 -11
c-13 -13 -32 -2 -32 18 0 12 4 13 21 3 14 -7 18 -14 11 -21z m708 -79 c0 -12
-5 -16 -15 -13 -8 4 -15 15 -15 25 0 12 5 16 15 13 8 -4 15 -15 15 -25z m-326
13 c2 -4 1 -14 -3 -21 -6 -9 -10 -7 -14 8 -5 20 7 29 17 13z m64 -35 c7 -8 6
-18 -5 -32 -10 -13 -17 -16 -20 -8 -2 7 -11 9 -20 6 -10 -4 -14 -2 -10 4 4 6
1 14 -5 17 -7 3 -3 3 10 0 16 -4 22 -1 22 10 0 19 14 21 28 3z m152 -11 c0 -3
-4 -8 -10 -11 -5 -3 -10 -1 -10 4 0 6 5 11 10 11 6 0 10 -2 10 -4z m-393 -26
c-6 -23 11 -31 37 -16 14 8 20 8 23 -1 3 -7 9 -13 14 -13 6 0 7 5 3 12 -4 7
-3 8 4 4 6 -4 9 -13 6 -21 -3 -7 -1 -22 5 -32 13 -26 -2 -51 -22 -35 -7 7 -18
8 -22 4 -5 -4 -5 -2 -1 5 3 6 2 14 -3 17 -5 3 -7 15 -4 26 4 15 2 19 -10 15
-8 -4 -18 -21 -22 -38 l-6 -32 -19 45 c-12 31 -15 51 -9 63 13 23 33 22 26 -3z
m390 -72 c-3 -8 -6 -5 -6 6 -1 11 2 17 5 13 3 -3 4 -12 1 -19z"/>
<path d="M2277 3343 c-9 -2 -15 -8 -13 -12 7 -10 66 -1 66 10 0 9 -22 10 -53
2z"/>
<path d="M2185 3321 c-19 -8 -20 -15 -15 -106 5 -91 4 -98 -15 -105 -11 -4
-23 -6 -27 -3 -5 2 -4 -6 1 -19 9 -23 -11 -70 -21 -51 -3 4 -3 1 0 -7 14 -49
32 -151 33 -190 1 -42 2 -43 10 -15 6 20 7 7 4 -42 -6 -82 9 -100 19 -24 4 27
12 51 18 53 8 3 8 24 0 81 -7 43 -12 86 -11 95 1 23 38 -117 39 -146 0 -13 9
-32 19 -43 11 -12 28 -55 40 -96 11 -42 23 -78 26 -81 16 -16 21 22 13 97 -8
64 -7 89 3 107 26 50 30 38 54 -170 19 -170 37 -191 30 -36 -3 63 -12 160 -20
215 -8 55 -19 168 -26 250 -6 83 -12 151 -14 153 -2 2 -18 -18 -35 -44 l-33
-47 7 -116 c4 -64 10 -126 13 -138 6 -27 -13 -31 -21 -5 -13 41 -46 244 -53
321 -5 75 -4 85 12 97 10 8 14 14 8 14 -6 0 -17 2 -25 4 -7 3 -22 1 -33 -3z"/>
<path d="M2283 3253 c-7 -2 -13 -14 -13 -24 0 -23 15 -17 30 12 11 19 6 22
-17 12z"/>
<path d="M70 3100 c0 -96 8 -129 34 -135 168 -37 350 -91 576 -170 569 -201
685 -237 895 -275 133 -24 241 -25 309 -4 l51 16 0 77 c0 42 4 95 9 118 l8 42
-53 -28 c-30 -16 -79 -34 -109 -39 -145 -26 -460 40 -805 168 -416 155 -691
247 -852 284 l-63 14 0 -68z"/>
<path d="M2016 3038 c-15 -71 -16 -103 -6 -134 6 -19 15 -32 19 -29 11 6 21
123 14 158 -6 33 -21 35 -27 5z"/>
<path d="M96 2783 c10 -66 24 -146 27 -149 2 -2 72 -19 157 -38 186 -42 253
-62 520 -162 744 -276 980 -325 1165 -240 56 25 136 91 134 110 -1 6 -23 31
-50 55 l-49 43 -33 -15 c-88 -42 -193 -47 -369 -16 -139 24 -403 99 -580 165
-393 146 -834 284 -909 284 -15 0 -17 -7 -13 -37z"/>
<path d="M161 2441 c5 -22 17 -64 26 -92 l18 -52 85 -17 c195 -40 284 -71 795
-282 541 -222 776 -227 983 -20 l67 67 -3 55 c-5 86 -7 87 -60 38 -137 -128
-288 -154 -539 -93 -142 34 -328 95 -523 172 -283 111 -372 144 -465 174 -118
37 -277 76 -342 85 l-51 6 9 -41z"/>
<path d="M2523 2443 c9 -2 23 -2 30 0 6 3 -1 5 -18 5 -16 0 -22 -2 -12 -5z"/>
<path d="M3330 2265 c-25 -30 5 -57 39 -36 21 13 40 2 34 -20 -4 -14 0 -19 16
-19 12 0 21 6 21 15 0 8 -4 15 -10 15 -5 0 -10 8 -10 18 0 10 -5 23 -12 30
-17 17 -63 15 -78 -3z"/>
<path d="M6026 2213 c-60 -16 -148 -94 -211 -188 -79 -119 -123 -228 -311
-772 -35 -101 -68 -193 -75 -205 -11 -22 -11 -22 16 2 15 14 53 55 85 91 52
60 61 79 100 195 126 383 235 550 401 613 22 8 34 29 68 116 63 164 63 155 0
154 -30 -1 -63 -4 -73 -6z"/>
<path d="M255 2133 c4 -10 18 -47 32 -83 13 -36 30 -70 36 -76 7 -6 54 -21
105 -33 119 -28 258 -85 512 -209 282 -137 355 -168 479 -201 262 -72 440 -14
674 217 l89 87 -6 48 c-12 84 -11 84 -101 -5 -139 -139 -248 -191 -401 -190
-164 1 -333 53 -707 219 -307 136 -380 163 -552 209 -151 39 -170 42 -160 17z"/>
<path d="M3098 2093 c-26 -3 -39 -10 -43 -24 -6 -17 -16 -23 -36 -21 -4 1 -5
-8 -2 -19 4 -14 9 -17 16 -10 7 7 15 7 22 1 17 -14 167 -32 178 -21 4 4 5 25
2 45 -9 43 -38 64 -63 44 -11 -9 -14 -10 -8 0 7 12 7 12 -66 5z"/>
<path d="M435 1733 c26 -48 52 -93 58 -99 7 -7 55 -29 107 -49 93 -37 169 -75
240 -120 420 -267 589 -323 795 -265 151 42 281 125 507 319 87 75 106 95 99
109 -5 9 -18 36 -28 58 l-19 42 -55 -52 c-254 -244 -464 -342 -654 -307 -144
26 -314 93 -492 194 -221 126 -430 217 -577 251 l-28 7 47 -88z"/>
<path d="M3341 1674 c0 -11 3 -14 6 -6 3 7 2 16 -1 19 -3 4 -6 -2 -5 -13z"/>
<path d="M2452 1664 c3 -20 -19 -24 -54 -10 -29 13 -35 -32 -6 -52 12 -9 26
-16 31 -14 4 1 7 -2 7 -8 0 -5 5 -10 10 -10 6 0 10 5 10 11 0 6 7 17 15 25 20
20 19 48 -1 65 -14 11 -15 10 -12 -7z"/>
<path d="M5855 1618 c-20 -24 -52 -68 -70 -99 -33 -56 -77 -149 -71 -149 12 0
190 279 183 287 -3 2 -21 -15 -42 -39z"/>
<path d="M2290 1620 c8 -5 20 -10 25 -10 6 0 3 5 -5 10 -8 5 -19 10 -25 10 -5
0 -3 -5 5 -10z"/>
<path d="M2407 1553 c-3 -5 -2 -15 2 -22 5 -7 11 -9 14 -4 3 5 2 15 -2 22 -5
7 -11 9 -14 4z"/>
<path d="M2451 1514 c0 -11 3 -14 6 -6 3 7 2 16 -1 19 -3 4 -6 -2 -5 -13z"/>
<path d="M2814 1515 c-12 -9 -14 -14 -5 -15 9 0 12 -8 9 -23 -6 -29 18 -32 46
-5 20 18 20 18 -2 38 -25 24 -23 24 -48 5z"/>
<path d="M2991 1487 c-12 -12 4 -37 25 -37 22 0 24 16 5 32 -14 12 -22 13 -30
5z"/>
<path d="M3171 1465 c0 -24 28 -45 57 -43 25 2 29 5 20 16 -7 7 -22 12 -35 9
-15 -3 -27 2 -33 12 -5 9 -9 12 -9 6z"/>
<path d="M2708 1373 c-20 -5 -23 -18 -7 -28 6 -4 8 -13 5 -20 -3 -8 2 -12 12
-11 10 2 17 15 19 34 4 32 3 33 -29 25z"/>
<path d="M2763 1325 c-9 -25 4 -29 17 -6 7 15 7 21 0 21 -6 0 -13 -7 -17 -15z"/>
<path d="M3470 746 c-25 -8 -61 -19 -81 -25 -49 -15 -159 -69 -254 -125 -112
-67 -272 -186 -509 -379 -22 -18 -47 -37 -55 -44 -9 -6 -13 -14 -10 -17 3 -3
59 -14 125 -25 127 -21 130 -20 179 26 44 41 214 173 287 222 186 124 371 178
523 152 118 -19 244 -66 435 -159 l174 -85 46 16 c26 9 73 28 104 42 l58 26
-24 18 c-12 9 -43 29 -68 43 -25 14 -97 54 -160 90 -159 90 -352 182 -435 208
-89 28 -268 37 -335 16z"/>
<path d="M3495 360 c-118 -16 -250 -81 -402 -197 -40 -31 -70 -59 -67 -64 3
-5 68 -9 145 -9 119 0 149 3 202 22 54 20 83 23 217 23 85 1 171 5 190 9 143
31 290 69 290 74 0 4 -51 28 -113 54 -186 77 -333 105 -462 88z"/>
</g>
</svg>
